<mxfile host="app.diagrams.net" agent="Mozilla/5.0 (Windows NT 10.0; Win64; x64) AppleWebKit/537.36 (KHTML, like Gecko) Chrome/127.0.0.0 Safari/537.36" version="24.7.6">
  <diagram name="Page-1" id="Wjg_AdjM6W4-ISduk8h_">
    <mxGraphModel grid="1" page="1" gridSize="10" guides="1" tooltips="1" connect="1" arrows="1" fold="1" pageScale="1" pageWidth="827" pageHeight="1169" math="0" shadow="0">
      <root>
        <mxCell id="0" />
        <mxCell id="1" parent="0" />
        <mxCell id="CEqzT_O1zlGT0uFjJXag-51" style="edgeStyle=orthogonalEdgeStyle;rounded=0;orthogonalLoop=1;jettySize=auto;html=1;entryX=0.5;entryY=0;entryDx=0;entryDy=0;endArrow=classic;endFill=1;" edge="1" parent="1" source="CEqzT_O1zlGT0uFjJXag-9" target="CEqzT_O1zlGT0uFjJXag-8">
          <mxGeometry relative="1" as="geometry" />
        </mxCell>
        <mxCell id="CEqzT_O1zlGT0uFjJXag-52" style="edgeStyle=orthogonalEdgeStyle;rounded=0;orthogonalLoop=1;jettySize=auto;html=1;endArrow=classic;endFill=1;" edge="1" parent="1" source="CEqzT_O1zlGT0uFjJXag-9" target="CEqzT_O1zlGT0uFjJXag-1">
          <mxGeometry relative="1" as="geometry" />
        </mxCell>
        <mxCell id="CEqzT_O1zlGT0uFjJXag-9" value="&lt;span id=&quot;docs-internal-guid-a1895cf5-7fff-21dc-1fa0-e08ab7215a50&quot;&gt;&lt;span style=&quot;font-size: 11pt; font-family: Arial, sans-serif; background-color: transparent; font-weight: 700; font-variant-numeric: normal; font-variant-east-asian: normal; font-variant-alternates: normal; font-variant-position: normal; vertical-align: baseline; white-space-collapse: preserve;&quot;&gt;StudentAllergies &lt;/span&gt;&lt;/span&gt;" style="rhombus;whiteSpace=wrap;html=1;fillColor=#dae8fc;strokeColor=#6c8ebf;" vertex="1" parent="1">
          <mxGeometry x="-600" y="480" width="160" height="120" as="geometry" />
        </mxCell>
        <mxCell id="CEqzT_O1zlGT0uFjJXag-10" value="&lt;span style=&quot;font-family: Arial, sans-serif; font-size: 14.6667px; font-weight: 700; white-space-collapse: preserve;&quot;&gt;MealIngredients &lt;/span&gt;" style="rhombus;whiteSpace=wrap;html=1;fillColor=#dae8fc;strokeColor=#6c8ebf;" vertex="1" parent="1">
          <mxGeometry x="690" y="580" width="170" height="110" as="geometry" />
        </mxCell>
        <mxCell id="CEqzT_O1zlGT0uFjJXag-18" value="" style="group" connectable="0" vertex="1" parent="1">
          <mxGeometry x="-810" y="70" width="540" height="210" as="geometry" />
        </mxCell>
        <mxCell id="CEqzT_O1zlGT0uFjJXag-1" value="&lt;span id=&quot;docs-internal-guid-4e0a0607-7fff-db38-a2a1-d8a7f60ac8c9&quot;&gt;&lt;span style=&quot;font-size: 11pt; font-family: Arial, sans-serif; background-color: transparent; font-weight: 700; font-variant-numeric: normal; font-variant-east-asian: normal; font-variant-alternates: normal; font-variant-position: normal; vertical-align: baseline; white-space-collapse: preserve;&quot;&gt;Students &lt;/span&gt;&lt;/span&gt;" style="rounded=0;whiteSpace=wrap;html=1;fillColor=#d5e8d4;strokeColor=#82b366;" vertex="1" parent="CEqzT_O1zlGT0uFjJXag-18">
          <mxGeometry x="230" y="150" width="120" height="60" as="geometry" />
        </mxCell>
        <mxCell id="CEqzT_O1zlGT0uFjJXag-11" value="&lt;span id=&quot;docs-internal-guid-a61928c1-7fff-82d3-d69d-603ec04fca5c&quot;&gt;&lt;span style=&quot;font-size: 11pt; font-family: Arial, sans-serif; color: rgb(24, 128, 56); background-color: transparent; font-variant-numeric: normal; font-variant-east-asian: normal; font-variant-alternates: normal; font-variant-position: normal; vertical-align: baseline; white-space-collapse: preserve;&quot;&gt;&lt;u&gt;StudentID&lt;/u&gt;&lt;/span&gt;&lt;/span&gt;" style="ellipse;whiteSpace=wrap;html=1;fillColor=#fff2cc;strokeColor=#d6b656;" vertex="1" parent="CEqzT_O1zlGT0uFjJXag-18">
          <mxGeometry x="110" y="20" width="120" height="80" as="geometry" />
        </mxCell>
        <mxCell id="CEqzT_O1zlGT0uFjJXag-12" value="&lt;span id=&quot;docs-internal-guid-a42a84f0-7fff-b28c-defc-e692b904e234&quot;&gt;&lt;span style=&quot;font-size: 11pt; font-family: Arial, sans-serif; color: rgb(24, 128, 56); background-color: transparent; font-variant-numeric: normal; font-variant-east-asian: normal; font-variant-alternates: normal; font-variant-position: normal; vertical-align: baseline; white-space-collapse: preserve;&quot;&gt;FirstName&lt;/span&gt;&lt;/span&gt;" style="ellipse;whiteSpace=wrap;html=1;fillColor=#fff2cc;strokeColor=#d6b656;" vertex="1" parent="CEqzT_O1zlGT0uFjJXag-18">
          <mxGeometry y="120" width="120" height="80" as="geometry" />
        </mxCell>
        <mxCell id="CEqzT_O1zlGT0uFjJXag-13" value="&lt;span id=&quot;docs-internal-guid-31149807-7fff-c7f0-0277-e1fa98fc8b4e&quot;&gt;&lt;span style=&quot;font-size: 11pt; font-family: Arial, sans-serif; color: rgb(24, 128, 56); background-color: transparent; font-variant-numeric: normal; font-variant-east-asian: normal; font-variant-alternates: normal; font-variant-position: normal; vertical-align: baseline; white-space-collapse: preserve;&quot;&gt;LastName&lt;/span&gt;&lt;/span&gt;" style="ellipse;whiteSpace=wrap;html=1;fillColor=#fff2cc;strokeColor=#d6b656;" vertex="1" parent="CEqzT_O1zlGT0uFjJXag-18">
          <mxGeometry x="260" width="120" height="80" as="geometry" />
        </mxCell>
        <mxCell id="CEqzT_O1zlGT0uFjJXag-14" value="&lt;span id=&quot;docs-internal-guid-e56b1856-7fff-fa4f-4be3-cf8afd807902&quot;&gt;&lt;span style=&quot;font-size: 11pt; font-family: Arial, sans-serif; color: rgb(24, 128, 56); background-color: transparent; font-variant-numeric: normal; font-variant-east-asian: normal; font-variant-alternates: normal; font-variant-position: normal; vertical-align: baseline; white-space-collapse: preserve;&quot;&gt;DateOfBirth&lt;/span&gt;&lt;/span&gt;" style="ellipse;whiteSpace=wrap;html=1;fillColor=#fff2cc;strokeColor=#d6b656;" vertex="1" parent="CEqzT_O1zlGT0uFjJXag-18">
          <mxGeometry x="410" y="50" width="120" height="80" as="geometry" />
        </mxCell>
        <mxCell id="CEqzT_O1zlGT0uFjJXag-46" value="" style="endArrow=none;html=1;rounded=0;entryX=0;entryY=0.5;entryDx=0;entryDy=0;exitX=0.977;exitY=0.61;exitDx=0;exitDy=0;exitPerimeter=0;" edge="1" parent="CEqzT_O1zlGT0uFjJXag-18" source="CEqzT_O1zlGT0uFjJXag-12" target="CEqzT_O1zlGT0uFjJXag-1">
          <mxGeometry width="50" height="50" relative="1" as="geometry">
            <mxPoint x="150" y="230" as="sourcePoint" />
            <mxPoint x="200" y="180" as="targetPoint" />
          </mxGeometry>
        </mxCell>
        <mxCell id="CEqzT_O1zlGT0uFjJXag-47" value="" style="endArrow=none;html=1;rounded=0;exitX=0.5;exitY=1;exitDx=0;exitDy=0;entryX=0.25;entryY=0;entryDx=0;entryDy=0;" edge="1" parent="CEqzT_O1zlGT0uFjJXag-18" source="CEqzT_O1zlGT0uFjJXag-11" target="CEqzT_O1zlGT0uFjJXag-1">
          <mxGeometry width="50" height="50" relative="1" as="geometry">
            <mxPoint x="200" y="230" as="sourcePoint" />
            <mxPoint x="250" y="180" as="targetPoint" />
          </mxGeometry>
        </mxCell>
        <mxCell id="CEqzT_O1zlGT0uFjJXag-48" value="" style="endArrow=none;html=1;rounded=0;exitX=0.578;exitY=-0.001;exitDx=0;exitDy=0;exitPerimeter=0;entryX=0.5;entryY=1;entryDx=0;entryDy=0;" edge="1" parent="CEqzT_O1zlGT0uFjJXag-18" source="CEqzT_O1zlGT0uFjJXag-1" target="CEqzT_O1zlGT0uFjJXag-13">
          <mxGeometry width="50" height="50" relative="1" as="geometry">
            <mxPoint x="300" y="150" as="sourcePoint" />
            <mxPoint x="350" y="100" as="targetPoint" />
          </mxGeometry>
        </mxCell>
        <mxCell id="CEqzT_O1zlGT0uFjJXag-49" value="" style="endArrow=none;html=1;rounded=0;entryX=0.011;entryY=0.554;entryDx=0;entryDy=0;entryPerimeter=0;exitX=1;exitY=0.5;exitDx=0;exitDy=0;" edge="1" parent="CEqzT_O1zlGT0uFjJXag-18" source="CEqzT_O1zlGT0uFjJXag-1" target="CEqzT_O1zlGT0uFjJXag-14">
          <mxGeometry width="50" height="50" relative="1" as="geometry">
            <mxPoint x="390" y="220" as="sourcePoint" />
            <mxPoint x="440" y="170" as="targetPoint" />
          </mxGeometry>
        </mxCell>
        <mxCell id="CEqzT_O1zlGT0uFjJXag-39" value="" style="group" connectable="0" vertex="1" parent="1">
          <mxGeometry x="245" y="350" width="280" height="190" as="geometry" />
        </mxCell>
        <mxCell id="CEqzT_O1zlGT0uFjJXag-6" value="&lt;span id=&quot;docs-internal-guid-a71e39cb-7fff-a48b-2994-62f2282cc23d&quot;&gt;&lt;span style=&quot;font-size: 11pt; font-family: Arial, sans-serif; background-color: transparent; font-weight: 700; font-variant-numeric: normal; font-variant-east-asian: normal; font-variant-alternates: normal; font-variant-position: normal; vertical-align: baseline; white-space-collapse: preserve;&quot;&gt;MealPlans &lt;/span&gt;&lt;/span&gt;" style="rounded=0;whiteSpace=wrap;html=1;fillColor=#d5e8d4;strokeColor=#82b366;" vertex="1" parent="CEqzT_O1zlGT0uFjJXag-39">
          <mxGeometry x="60" y="130" width="120" height="60" as="geometry" />
        </mxCell>
        <mxCell id="CEqzT_O1zlGT0uFjJXag-37" value="&lt;span id=&quot;docs-internal-guid-aaa8d81f-7fff-a9e6-08b7-db5697538a87&quot;&gt;&lt;span style=&quot;font-size: 11pt; font-family: Arial, sans-serif; color: rgb(24, 128, 56); background-color: transparent; font-variant-numeric: normal; font-variant-east-asian: normal; font-variant-alternates: normal; font-variant-position: normal; vertical-align: baseline; white-space-collapse: preserve;&quot;&gt;&lt;u&gt;MealPlanID&lt;/u&gt;&lt;/span&gt;&lt;/span&gt;" style="ellipse;whiteSpace=wrap;html=1;fillColor=#fff2cc;strokeColor=#d6b656;" vertex="1" parent="CEqzT_O1zlGT0uFjJXag-39">
          <mxGeometry width="120" height="80" as="geometry" />
        </mxCell>
        <mxCell id="CEqzT_O1zlGT0uFjJXag-38" value="&lt;span id=&quot;docs-internal-guid-5c3fb714-7fff-e1da-8234-1f020aa0f984&quot;&gt;&lt;span style=&quot;font-size: 11pt; font-family: Arial, sans-serif; color: rgb(24, 128, 56); background-color: transparent; font-variant-numeric: normal; font-variant-east-asian: normal; font-variant-alternates: normal; font-variant-position: normal; vertical-align: baseline; white-space-collapse: preserve;&quot;&gt;DayOfWeek&lt;/span&gt;&lt;/span&gt;" style="ellipse;whiteSpace=wrap;html=1;fillColor=#fff2cc;strokeColor=#d6b656;" vertex="1" parent="CEqzT_O1zlGT0uFjJXag-39">
          <mxGeometry x="160" y="10" width="120" height="80" as="geometry" />
        </mxCell>
        <mxCell id="CEqzT_O1zlGT0uFjJXag-62" value="" style="endArrow=none;html=1;rounded=0;entryX=0.5;entryY=1;entryDx=0;entryDy=0;exitX=0.729;exitY=0.008;exitDx=0;exitDy=0;exitPerimeter=0;" edge="1" parent="CEqzT_O1zlGT0uFjJXag-39" source="CEqzT_O1zlGT0uFjJXag-6" target="CEqzT_O1zlGT0uFjJXag-38">
          <mxGeometry width="50" height="50" relative="1" as="geometry">
            <mxPoint x="100" y="190" as="sourcePoint" />
            <mxPoint x="150" y="140" as="targetPoint" />
          </mxGeometry>
        </mxCell>
        <mxCell id="CEqzT_O1zlGT0uFjJXag-63" value="" style="endArrow=none;html=1;rounded=0;entryX=0.5;entryY=1;entryDx=0;entryDy=0;exitX=0.387;exitY=0;exitDx=0;exitDy=0;exitPerimeter=0;" edge="1" parent="CEqzT_O1zlGT0uFjJXag-39" source="CEqzT_O1zlGT0uFjJXag-6" target="CEqzT_O1zlGT0uFjJXag-37">
          <mxGeometry width="50" height="50" relative="1" as="geometry">
            <mxPoint x="100" y="190" as="sourcePoint" />
            <mxPoint x="150" y="140" as="targetPoint" />
          </mxGeometry>
        </mxCell>
        <mxCell id="CEqzT_O1zlGT0uFjJXag-43" value="&lt;span id=&quot;docs-internal-guid-a4254b89-7fff-3d58-8f04-6474976504af&quot;&gt;&lt;span style=&quot;font-size: 11pt; font-family: Arial, sans-serif; color: rgb(24, 128, 56); background-color: transparent; font-variant-numeric: normal; font-variant-east-asian: normal; font-variant-alternates: normal; font-variant-position: normal; vertical-align: baseline; white-space-collapse: preserve;&quot;&gt;Quantity&lt;/span&gt;&lt;/span&gt;" style="ellipse;whiteSpace=wrap;html=1;fillColor=#fff2cc;strokeColor=#d6b656;" vertex="1" parent="1">
          <mxGeometry x="890" y="670" width="120" height="80" as="geometry" />
        </mxCell>
        <mxCell id="CEqzT_O1zlGT0uFjJXag-50" value="" style="group" connectable="0" vertex="1" parent="1">
          <mxGeometry x="-780" y="760" width="320" height="180" as="geometry" />
        </mxCell>
        <mxCell id="CEqzT_O1zlGT0uFjJXag-41" value="&lt;span id=&quot;docs-internal-guid-3a8b6664-7fff-b1d2-03de-dca2365932f7&quot;&gt;&lt;span style=&quot;font-size: 11pt; font-family: Arial, sans-serif; color: rgb(24, 128, 56); background-color: transparent; font-variant-numeric: normal; font-variant-east-asian: normal; font-variant-alternates: normal; font-variant-position: normal; vertical-align: baseline; white-space-collapse: preserve;&quot;&gt;AllergyName&lt;/span&gt;&lt;/span&gt;" style="ellipse;whiteSpace=wrap;html=1;fillColor=#fff2cc;strokeColor=#d6b656;" vertex="1" parent="CEqzT_O1zlGT0uFjJXag-50">
          <mxGeometry width="120" height="80" as="geometry" />
        </mxCell>
        <mxCell id="CEqzT_O1zlGT0uFjJXag-40" value="&lt;span id=&quot;docs-internal-guid-568dc8fe-7fff-9344-afa1-282b0cecfc4d&quot;&gt;&lt;span style=&quot;font-size: 11pt; font-family: Arial, sans-serif; color: rgb(24, 128, 56); background-color: transparent; font-variant-numeric: normal; font-variant-east-asian: normal; font-variant-alternates: normal; font-variant-position: normal; vertical-align: baseline; white-space-collapse: preserve;&quot;&gt;&lt;u&gt;AllergyID&lt;/u&gt;&lt;/span&gt;&lt;/span&gt;" style="ellipse;whiteSpace=wrap;html=1;fillColor=#fff2cc;strokeColor=#d6b656;" vertex="1" parent="CEqzT_O1zlGT0uFjJXag-50">
          <mxGeometry x="70" y="100" width="120" height="80" as="geometry" />
        </mxCell>
        <mxCell id="CEqzT_O1zlGT0uFjJXag-8" value="&lt;span id=&quot;docs-internal-guid-63a91ddf-7fff-f4ec-8b15-c57e348c2844&quot;&gt;&lt;span style=&quot;font-size: 11pt; font-family: Arial, sans-serif; background-color: transparent; font-weight: 700; font-variant-numeric: normal; font-variant-east-asian: normal; font-variant-alternates: normal; font-variant-position: normal; vertical-align: baseline; white-space-collapse: preserve;&quot;&gt;Allergies &lt;/span&gt;&lt;/span&gt;" style="rounded=0;whiteSpace=wrap;html=1;fillColor=#d5e8d4;strokeColor=#82b366;" vertex="1" parent="CEqzT_O1zlGT0uFjJXag-50">
          <mxGeometry x="200" width="120" height="60" as="geometry" />
        </mxCell>
        <mxCell id="CEqzT_O1zlGT0uFjJXag-44" value="" style="endArrow=none;html=1;rounded=0;exitX=1;exitY=0.5;exitDx=0;exitDy=0;entryX=0;entryY=0.5;entryDx=0;entryDy=0;" edge="1" parent="CEqzT_O1zlGT0uFjJXag-50" source="CEqzT_O1zlGT0uFjJXag-41" target="CEqzT_O1zlGT0uFjJXag-8">
          <mxGeometry width="50" height="50" relative="1" as="geometry">
            <mxPoint x="160" y="-10" as="sourcePoint" />
            <mxPoint x="210" y="-60" as="targetPoint" />
          </mxGeometry>
        </mxCell>
        <mxCell id="CEqzT_O1zlGT0uFjJXag-45" value="" style="endArrow=none;html=1;rounded=0;entryX=0.5;entryY=1;entryDx=0;entryDy=0;exitX=1;exitY=0.5;exitDx=0;exitDy=0;" edge="1" parent="CEqzT_O1zlGT0uFjJXag-50" source="CEqzT_O1zlGT0uFjJXag-40" target="CEqzT_O1zlGT0uFjJXag-8">
          <mxGeometry width="50" height="50" relative="1" as="geometry">
            <mxPoint x="200" y="140" as="sourcePoint" />
            <mxPoint x="250" y="90" as="targetPoint" />
          </mxGeometry>
        </mxCell>
        <mxCell id="CEqzT_O1zlGT0uFjJXag-60" value="" style="group" connectable="0" vertex="1" parent="1">
          <mxGeometry x="-150" y="240" width="300" height="230" as="geometry" />
        </mxCell>
        <mxCell id="CEqzT_O1zlGT0uFjJXag-2" value="&lt;span id=&quot;docs-internal-guid-5000d232-7fff-089c-1100-9c3edc78832a&quot;&gt;&lt;span style=&quot;font-size: 11pt; font-family: Arial, sans-serif; background-color: transparent; font-weight: 700; font-variant-numeric: normal; font-variant-east-asian: normal; font-variant-alternates: normal; font-variant-position: normal; vertical-align: baseline; white-space-collapse: preserve;&quot;&gt;Classes &lt;/span&gt;&lt;/span&gt;" style="rounded=0;whiteSpace=wrap;html=1;fillColor=#d5e8d4;strokeColor=#82b366;" vertex="1" parent="CEqzT_O1zlGT0uFjJXag-60">
          <mxGeometry x="75" y="170" width="120" height="60" as="geometry" />
        </mxCell>
        <mxCell id="CEqzT_O1zlGT0uFjJXag-16" value="&lt;span id=&quot;docs-internal-guid-70bfbf16-7fff-3402-c09f-bd4282325ad9&quot;&gt;&lt;span style=&quot;font-size: 11pt; font-family: Arial, sans-serif; color: rgb(24, 128, 56); background-color: transparent; font-variant-numeric: normal; font-variant-east-asian: normal; font-variant-alternates: normal; font-variant-position: normal; vertical-align: baseline; white-space-collapse: preserve;&quot;&gt;&lt;u&gt;ClassID&lt;/u&gt;&lt;/span&gt;&lt;/span&gt;" style="ellipse;whiteSpace=wrap;html=1;fillColor=#fff2cc;strokeColor=#d6b656;" vertex="1" parent="CEqzT_O1zlGT0uFjJXag-60">
          <mxGeometry width="120" height="80" as="geometry" />
        </mxCell>
        <mxCell id="CEqzT_O1zlGT0uFjJXag-17" value="&lt;span id=&quot;docs-internal-guid-d9b5e76f-7fff-5df2-27f1-85cf75e360ad&quot;&gt;&lt;span style=&quot;font-size: 11pt; font-family: Arial, sans-serif; color: rgb(24, 128, 56); background-color: transparent; font-variant-numeric: normal; font-variant-east-asian: normal; font-variant-alternates: normal; font-variant-position: normal; vertical-align: baseline; white-space-collapse: preserve;&quot;&gt;ClassName&lt;/span&gt;&lt;/span&gt;" style="ellipse;whiteSpace=wrap;html=1;fillColor=#fff2cc;strokeColor=#d6b656;" vertex="1" parent="CEqzT_O1zlGT0uFjJXag-60">
          <mxGeometry x="180" y="10" width="120" height="80" as="geometry" />
        </mxCell>
        <mxCell id="CEqzT_O1zlGT0uFjJXag-53" value="" style="endArrow=none;html=1;rounded=0;exitX=0.558;exitY=0.988;exitDx=0;exitDy=0;exitPerimeter=0;entryX=0.177;entryY=-0.005;entryDx=0;entryDy=0;entryPerimeter=0;" edge="1" parent="CEqzT_O1zlGT0uFjJXag-60" source="CEqzT_O1zlGT0uFjJXag-16" target="CEqzT_O1zlGT0uFjJXag-2">
          <mxGeometry width="50" height="50" relative="1" as="geometry">
            <mxPoint x="50" y="240" as="sourcePoint" />
            <mxPoint x="100" y="190" as="targetPoint" />
          </mxGeometry>
        </mxCell>
        <mxCell id="CEqzT_O1zlGT0uFjJXag-54" value="" style="endArrow=none;html=1;rounded=0;exitX=0.576;exitY=-0.017;exitDx=0;exitDy=0;exitPerimeter=0;entryX=0.558;entryY=0.988;entryDx=0;entryDy=0;entryPerimeter=0;" edge="1" parent="CEqzT_O1zlGT0uFjJXag-60" source="CEqzT_O1zlGT0uFjJXag-2" target="CEqzT_O1zlGT0uFjJXag-17">
          <mxGeometry width="50" height="50" relative="1" as="geometry">
            <mxPoint x="50" y="240" as="sourcePoint" />
            <mxPoint x="180" y="110" as="targetPoint" />
          </mxGeometry>
        </mxCell>
        <mxCell id="CEqzT_O1zlGT0uFjJXag-61" value="" style="group" connectable="0" vertex="1" parent="1">
          <mxGeometry x="-270" y="700" width="515" height="230" as="geometry" />
        </mxCell>
        <mxCell id="CEqzT_O1zlGT0uFjJXag-3" value="&lt;span id=&quot;docs-internal-guid-f92ce94c-7fff-3a7a-1688-f6d5f87c828b&quot;&gt;&lt;span style=&quot;font-size: 11pt; font-family: Arial, sans-serif; background-color: transparent; font-weight: 700; font-variant-numeric: normal; font-variant-east-asian: normal; font-variant-alternates: normal; font-variant-position: normal; vertical-align: baseline; white-space-collapse: preserve;&quot;&gt;Teachers &lt;/span&gt;&lt;/span&gt;" style="rounded=0;whiteSpace=wrap;html=1;fillColor=#d5e8d4;strokeColor=#82b366;" vertex="1" parent="CEqzT_O1zlGT0uFjJXag-61">
          <mxGeometry x="200" width="120" height="60" as="geometry" />
        </mxCell>
        <mxCell id="CEqzT_O1zlGT0uFjJXag-20" value="&lt;span id=&quot;docs-internal-guid-4b868f2c-7fff-6664-0d9a-b672aafb0df1&quot;&gt;&lt;span style=&quot;font-size: 11pt; font-family: Arial, sans-serif; color: rgb(24, 128, 56); background-color: transparent; font-variant-numeric: normal; font-variant-east-asian: normal; font-variant-alternates: normal; font-variant-position: normal; vertical-align: baseline; white-space-collapse: preserve;&quot;&gt;&lt;u&gt;TeacherID&lt;/u&gt;&lt;/span&gt;&lt;/span&gt;" style="ellipse;whiteSpace=wrap;html=1;fillColor=#fff2cc;strokeColor=#d6b656;" vertex="1" parent="CEqzT_O1zlGT0uFjJXag-61">
          <mxGeometry x="70" y="130" width="120" height="80" as="geometry" />
        </mxCell>
        <mxCell id="CEqzT_O1zlGT0uFjJXag-21" value="&lt;span id=&quot;docs-internal-guid-a42a84f0-7fff-b28c-defc-e692b904e234&quot;&gt;&lt;span style=&quot;font-size: 11pt; font-family: Arial, sans-serif; color: rgb(24, 128, 56); background-color: transparent; font-variant-numeric: normal; font-variant-east-asian: normal; font-variant-alternates: normal; font-variant-position: normal; vertical-align: baseline; white-space-collapse: preserve;&quot;&gt;FirstName&lt;/span&gt;&lt;/span&gt;" style="ellipse;whiteSpace=wrap;html=1;fillColor=#fff2cc;strokeColor=#d6b656;" vertex="1" parent="CEqzT_O1zlGT0uFjJXag-61">
          <mxGeometry x="220" y="150" width="120" height="80" as="geometry" />
        </mxCell>
        <mxCell id="CEqzT_O1zlGT0uFjJXag-22" value="&lt;span id=&quot;docs-internal-guid-31149807-7fff-c7f0-0277-e1fa98fc8b4e&quot;&gt;&lt;span style=&quot;font-size: 11pt; font-family: Arial, sans-serif; color: rgb(24, 128, 56); background-color: transparent; font-variant-numeric: normal; font-variant-east-asian: normal; font-variant-alternates: normal; font-variant-position: normal; vertical-align: baseline; white-space-collapse: preserve;&quot;&gt;LastName&lt;/span&gt;&lt;/span&gt;" style="ellipse;whiteSpace=wrap;html=1;fillColor=#fff2cc;strokeColor=#d6b656;" vertex="1" parent="CEqzT_O1zlGT0uFjJXag-61">
          <mxGeometry x="370" y="120" width="120" height="80" as="geometry" />
        </mxCell>
        <mxCell id="CEqzT_O1zlGT0uFjJXag-23" value="&lt;span id=&quot;docs-internal-guid-8f6509b5-7fff-ca0d-bfcd-56a22312e15e&quot;&gt;&lt;span style=&quot;font-size: 11pt; font-family: Arial, sans-serif; color: rgb(24, 128, 56); background-color: transparent; font-variant-numeric: normal; font-variant-east-asian: normal; font-variant-alternates: normal; font-variant-position: normal; vertical-align: baseline; white-space-collapse: preserve;&quot;&gt;PhoneNumber&lt;/span&gt;&lt;/span&gt;" style="ellipse;whiteSpace=wrap;html=1;fillColor=#fff2cc;strokeColor=#d6b656;" vertex="1" parent="CEqzT_O1zlGT0uFjJXag-61">
          <mxGeometry y="10" width="120" height="80" as="geometry" />
        </mxCell>
        <mxCell id="CEqzT_O1zlGT0uFjJXag-24" value="&lt;span id=&quot;docs-internal-guid-46146eec-7fff-e2ca-f57b-37907e24557a&quot;&gt;&lt;span style=&quot;font-size: 11pt; font-family: Arial, sans-serif; color: rgb(24, 128, 56); background-color: transparent; font-variant-numeric: normal; font-variant-east-asian: normal; font-variant-alternates: normal; font-variant-position: normal; vertical-align: baseline; white-space-collapse: preserve;&quot;&gt;Email&lt;/span&gt;&lt;/span&gt;" style="ellipse;whiteSpace=wrap;html=1;fillColor=#fff2cc;strokeColor=#d6b656;" vertex="1" parent="CEqzT_O1zlGT0uFjJXag-61">
          <mxGeometry x="395" width="120" height="80" as="geometry" />
        </mxCell>
        <mxCell id="CEqzT_O1zlGT0uFjJXag-55" value="" style="endArrow=none;html=1;rounded=0;exitX=1;exitY=0.5;exitDx=0;exitDy=0;entryX=0;entryY=0.333;entryDx=0;entryDy=0;entryPerimeter=0;" edge="1" parent="CEqzT_O1zlGT0uFjJXag-61" source="CEqzT_O1zlGT0uFjJXag-23" target="CEqzT_O1zlGT0uFjJXag-3">
          <mxGeometry width="50" height="50" relative="1" as="geometry">
            <mxPoint x="240" y="-110" as="sourcePoint" />
            <mxPoint x="290" y="-160" as="targetPoint" />
          </mxGeometry>
        </mxCell>
        <mxCell id="CEqzT_O1zlGT0uFjJXag-56" value="" style="endArrow=none;html=1;rounded=0;exitX=0.788;exitY=0.099;exitDx=0;exitDy=0;exitPerimeter=0;entryX=0.144;entryY=1.002;entryDx=0;entryDy=0;entryPerimeter=0;" edge="1" parent="CEqzT_O1zlGT0uFjJXag-61" source="CEqzT_O1zlGT0uFjJXag-20" target="CEqzT_O1zlGT0uFjJXag-3">
          <mxGeometry width="50" height="50" relative="1" as="geometry">
            <mxPoint x="240" y="-110" as="sourcePoint" />
            <mxPoint x="290" y="-160" as="targetPoint" />
          </mxGeometry>
        </mxCell>
        <mxCell id="CEqzT_O1zlGT0uFjJXag-57" value="" style="endArrow=none;html=1;rounded=0;exitX=0.379;exitY=0.022;exitDx=0;exitDy=0;exitPerimeter=0;entryX=0.5;entryY=1;entryDx=0;entryDy=0;" edge="1" parent="CEqzT_O1zlGT0uFjJXag-61" source="CEqzT_O1zlGT0uFjJXag-21" target="CEqzT_O1zlGT0uFjJXag-3">
          <mxGeometry width="50" height="50" relative="1" as="geometry">
            <mxPoint x="240" y="-110" as="sourcePoint" />
            <mxPoint x="290" y="-160" as="targetPoint" />
          </mxGeometry>
        </mxCell>
        <mxCell id="CEqzT_O1zlGT0uFjJXag-58" value="" style="endArrow=none;html=1;rounded=0;exitX=1;exitY=0.5;exitDx=0;exitDy=0;entryX=0;entryY=0.5;entryDx=0;entryDy=0;" edge="1" parent="CEqzT_O1zlGT0uFjJXag-61" source="CEqzT_O1zlGT0uFjJXag-3" target="CEqzT_O1zlGT0uFjJXag-24">
          <mxGeometry width="50" height="50" relative="1" as="geometry">
            <mxPoint x="390" y="-110" as="sourcePoint" />
            <mxPoint x="440" y="-160" as="targetPoint" />
          </mxGeometry>
        </mxCell>
        <mxCell id="CEqzT_O1zlGT0uFjJXag-59" value="" style="endArrow=none;html=1;rounded=0;exitX=0.669;exitY=0.987;exitDx=0;exitDy=0;exitPerimeter=0;entryX=0;entryY=0;entryDx=0;entryDy=0;" edge="1" parent="CEqzT_O1zlGT0uFjJXag-61" source="CEqzT_O1zlGT0uFjJXag-3" target="CEqzT_O1zlGT0uFjJXag-22">
          <mxGeometry width="50" height="50" relative="1" as="geometry">
            <mxPoint x="390" y="-110" as="sourcePoint" />
            <mxPoint x="440" y="-160" as="targetPoint" />
          </mxGeometry>
        </mxCell>
        <mxCell id="CEqzT_O1zlGT0uFjJXag-4" value="&lt;span id=&quot;docs-internal-guid-2a8a605b-7fff-50eb-a77d-3e9fc999092c&quot;&gt;&lt;span style=&quot;font-size: 11pt; font-family: Arial, sans-serif; background-color: transparent; font-weight: 700; font-variant-numeric: normal; font-variant-east-asian: normal; font-variant-alternates: normal; font-variant-position: normal; vertical-align: baseline; white-space-collapse: preserve;&quot;&gt;Meals &lt;/span&gt;&lt;/span&gt;" style="rounded=0;whiteSpace=wrap;html=1;fillColor=#d5e8d4;strokeColor=#82b366;" vertex="1" parent="1">
          <mxGeometry x="490" y="740" width="120" height="60" as="geometry" />
        </mxCell>
        <mxCell id="CEqzT_O1zlGT0uFjJXag-26" value="&lt;span id=&quot;docs-internal-guid-6a7dd06c-7fff-6ec2-8309-5f5cfd30347e&quot;&gt;&lt;span style=&quot;font-size: 11pt; font-family: Arial, sans-serif; color: rgb(24, 128, 56); background-color: transparent; font-variant-numeric: normal; font-variant-east-asian: normal; font-variant-alternates: normal; font-variant-position: normal; vertical-align: baseline; white-space-collapse: preserve;&quot;&gt;&lt;u&gt;MealID&lt;/u&gt;&lt;/span&gt;&lt;/span&gt;" style="ellipse;whiteSpace=wrap;html=1;fillColor=#fff2cc;strokeColor=#d6b656;" vertex="1" parent="1">
          <mxGeometry x="300" y="775" width="120" height="80" as="geometry" />
        </mxCell>
        <mxCell id="CEqzT_O1zlGT0uFjJXag-27" value="&lt;span id=&quot;docs-internal-guid-e30f0f4c-7fff-9877-a0f8-073b75c80aa9&quot;&gt;&lt;span style=&quot;font-size: 11pt; font-family: Arial, sans-serif; color: rgb(24, 128, 56); background-color: transparent; font-variant-numeric: normal; font-variant-east-asian: normal; font-variant-alternates: normal; font-variant-position: normal; vertical-align: baseline; white-space-collapse: preserve;&quot;&gt;MealName&lt;/span&gt;&lt;/span&gt;" style="ellipse;whiteSpace=wrap;html=1;fillColor=#fff2cc;strokeColor=#d6b656;" vertex="1" parent="1">
          <mxGeometry x="430" y="850" width="120" height="80" as="geometry" />
        </mxCell>
        <mxCell id="CEqzT_O1zlGT0uFjJXag-28" value="&lt;span id=&quot;docs-internal-guid-68e35a40-7fff-b3d6-2c2d-54fff21b768c&quot;&gt;&lt;span style=&quot;font-size: 11pt; font-family: Arial, sans-serif; color: rgb(24, 128, 56); background-color: transparent; font-variant-numeric: normal; font-variant-east-asian: normal; font-variant-alternates: normal; font-variant-position: normal; vertical-align: baseline; white-space-collapse: preserve;&quot;&gt;Description&lt;/span&gt;&lt;/span&gt;" style="ellipse;whiteSpace=wrap;html=1;fillColor=#fff2cc;strokeColor=#d6b656;" vertex="1" parent="1">
          <mxGeometry x="610" y="850" width="120" height="80" as="geometry" />
        </mxCell>
        <mxCell id="CEqzT_O1zlGT0uFjJXag-5" value="&lt;span id=&quot;docs-internal-guid-b7e938ee-7fff-8aa8-3155-233017d6d4c6&quot;&gt;&lt;span style=&quot;font-size: 11pt; font-family: Arial, sans-serif; background-color: transparent; font-weight: 700; font-variant-numeric: normal; font-variant-east-asian: normal; font-variant-alternates: normal; font-variant-position: normal; vertical-align: baseline; white-space-collapse: preserve;&quot;&gt;Ingredients &lt;/span&gt;&lt;/span&gt;" style="rounded=0;whiteSpace=wrap;html=1;fillColor=#d5e8d4;strokeColor=#82b366;" vertex="1" parent="1">
          <mxGeometry x="780" y="370" width="120" height="60" as="geometry" />
        </mxCell>
        <mxCell id="CEqzT_O1zlGT0uFjJXag-30" value="&lt;span id=&quot;docs-internal-guid-44230b1b-7fff-6851-d03d-9ea32e8d3b70&quot;&gt;&lt;span style=&quot;font-size: 11pt; font-family: Arial, sans-serif; color: rgb(24, 128, 56); background-color: transparent; font-variant-numeric: normal; font-variant-east-asian: normal; font-variant-alternates: normal; font-variant-position: normal; vertical-align: baseline; white-space-collapse: preserve;&quot;&gt;&lt;u&gt;IngredientID&lt;/u&gt;&lt;/span&gt;&lt;/span&gt;" style="ellipse;whiteSpace=wrap;html=1;fillColor=#fff2cc;strokeColor=#d6b656;" vertex="1" parent="1">
          <mxGeometry x="680" y="260" width="120" height="80" as="geometry" />
        </mxCell>
        <mxCell id="CEqzT_O1zlGT0uFjJXag-31" value="&lt;span id=&quot;docs-internal-guid-3b96d4b4-7fff-83d0-3768-aff243d58689&quot;&gt;&lt;span style=&quot;font-size: 11pt; font-family: Arial, sans-serif; color: rgb(24, 128, 56); background-color: transparent; font-variant-numeric: normal; font-variant-east-asian: normal; font-variant-alternates: normal; font-variant-position: normal; vertical-align: baseline; white-space-collapse: preserve;&quot;&gt;IngredientName&lt;/span&gt;&lt;/span&gt;" style="ellipse;whiteSpace=wrap;html=1;fillColor=#fff2cc;strokeColor=#d6b656;" vertex="1" parent="1">
          <mxGeometry x="840" y="235" width="120" height="80" as="geometry" />
        </mxCell>
        <mxCell id="CEqzT_O1zlGT0uFjJXag-32" value="&lt;span id=&quot;docs-internal-guid-a4147474-7fff-b28e-19a6-711dea4e76cc&quot;&gt;&lt;span style=&quot;font-size: 11pt; font-family: Arial, sans-serif; color: rgb(24, 128, 56); background-color: transparent; font-variant-numeric: normal; font-variant-east-asian: normal; font-variant-alternates: normal; font-variant-position: normal; vertical-align: baseline; white-space-collapse: preserve;&quot;&gt;Quantity&lt;/span&gt;&lt;/span&gt;" style="ellipse;whiteSpace=wrap;html=1;fillColor=#fff2cc;strokeColor=#d6b656;" vertex="1" parent="1">
          <mxGeometry x="950" y="315" width="120" height="80" as="geometry" />
        </mxCell>
        <mxCell id="CEqzT_O1zlGT0uFjJXag-33" value="&lt;span id=&quot;docs-internal-guid-661483e4-7fff-ce83-06f2-5a2b008abefe&quot;&gt;&lt;span style=&quot;font-size: 11pt; font-family: Arial, sans-serif; color: rgb(24, 128, 56); background-color: transparent; font-variant-numeric: normal; font-variant-east-asian: normal; font-variant-alternates: normal; font-variant-position: normal; vertical-align: baseline; white-space-collapse: preserve;&quot;&gt;Unit&lt;/span&gt;&lt;/span&gt;" style="ellipse;whiteSpace=wrap;html=1;fillColor=#fff2cc;strokeColor=#d6b656;" vertex="1" parent="1">
          <mxGeometry x="990" y="420" width="120" height="80" as="geometry" />
        </mxCell>
        <mxCell id="CEqzT_O1zlGT0uFjJXag-34" value="&lt;span id=&quot;docs-internal-guid-4e671a97-7fff-0c97-0ede-3e33757899c1&quot;&gt;&lt;span style=&quot;font-size: 11pt; font-family: Arial, sans-serif; color: rgb(24, 128, 56); background-color: transparent; font-variant-numeric: normal; font-variant-east-asian: normal; font-variant-alternates: normal; font-variant-position: normal; vertical-align: baseline; white-space-collapse: preserve;&quot;&gt;PricePerUnit&lt;/span&gt;&lt;/span&gt;" style="ellipse;whiteSpace=wrap;html=1;fillColor=#fff2cc;strokeColor=#d6b656;" vertex="1" parent="1">
          <mxGeometry x="600" y="370" width="120" height="80" as="geometry" />
        </mxCell>
        <mxCell id="CEqzT_O1zlGT0uFjJXag-64" value="" style="endArrow=none;html=1;rounded=0;entryX=0.011;entryY=0.585;entryDx=0;entryDy=0;entryPerimeter=0;exitX=0.995;exitY=0.438;exitDx=0;exitDy=0;exitPerimeter=0;" edge="1" parent="1" source="CEqzT_O1zlGT0uFjJXag-26" target="CEqzT_O1zlGT0uFjJXag-4">
          <mxGeometry width="50" height="50" relative="1" as="geometry">
            <mxPoint x="450" y="910" as="sourcePoint" />
            <mxPoint x="500" y="860" as="targetPoint" />
          </mxGeometry>
        </mxCell>
        <mxCell id="CEqzT_O1zlGT0uFjJXag-65" value="" style="endArrow=none;html=1;rounded=0;entryX=0.224;entryY=0.967;entryDx=0;entryDy=0;entryPerimeter=0;exitX=0.546;exitY=0.021;exitDx=0;exitDy=0;exitPerimeter=0;" edge="1" parent="1" source="CEqzT_O1zlGT0uFjJXag-27" target="CEqzT_O1zlGT0uFjJXag-4">
          <mxGeometry width="50" height="50" relative="1" as="geometry">
            <mxPoint x="450" y="910" as="sourcePoint" />
            <mxPoint x="500" y="860" as="targetPoint" />
          </mxGeometry>
        </mxCell>
        <mxCell id="CEqzT_O1zlGT0uFjJXag-66" value="" style="endArrow=none;html=1;rounded=0;entryX=0.875;entryY=1.01;entryDx=0;entryDy=0;entryPerimeter=0;exitX=0.287;exitY=0.079;exitDx=0;exitDy=0;exitPerimeter=0;" edge="1" parent="1" source="CEqzT_O1zlGT0uFjJXag-28" target="CEqzT_O1zlGT0uFjJXag-4">
          <mxGeometry width="50" height="50" relative="1" as="geometry">
            <mxPoint x="610" y="910" as="sourcePoint" />
            <mxPoint x="660" y="860" as="targetPoint" />
          </mxGeometry>
        </mxCell>
        <mxCell id="CEqzT_O1zlGT0uFjJXag-67" value="" style="endArrow=none;html=1;rounded=0;entryX=0.058;entryY=0.254;entryDx=0;entryDy=0;entryPerimeter=0;exitX=0.84;exitY=0.666;exitDx=0;exitDy=0;exitPerimeter=0;" edge="1" parent="1" source="CEqzT_O1zlGT0uFjJXag-10" target="CEqzT_O1zlGT0uFjJXag-43">
          <mxGeometry width="50" height="50" relative="1" as="geometry">
            <mxPoint x="840" y="650" as="sourcePoint" />
            <mxPoint x="890" y="600" as="targetPoint" />
          </mxGeometry>
        </mxCell>
        <mxCell id="CEqzT_O1zlGT0uFjJXag-68" value="" style="endArrow=none;html=1;rounded=0;entryX=0.5;entryY=1;entryDx=0;entryDy=0;exitX=0.5;exitY=0;exitDx=0;exitDy=0;" edge="1" parent="1" source="CEqzT_O1zlGT0uFjJXag-5" target="CEqzT_O1zlGT0uFjJXag-31">
          <mxGeometry width="50" height="50" relative="1" as="geometry">
            <mxPoint x="830" y="420" as="sourcePoint" />
            <mxPoint x="880" y="370" as="targetPoint" />
          </mxGeometry>
        </mxCell>
        <mxCell id="CEqzT_O1zlGT0uFjJXag-69" value="" style="endArrow=none;html=1;rounded=0;exitX=0.62;exitY=0.988;exitDx=0;exitDy=0;exitPerimeter=0;entryX=0.25;entryY=0;entryDx=0;entryDy=0;" edge="1" parent="1" source="CEqzT_O1zlGT0uFjJXag-30" target="CEqzT_O1zlGT0uFjJXag-5">
          <mxGeometry width="50" height="50" relative="1" as="geometry">
            <mxPoint x="830" y="420" as="sourcePoint" />
            <mxPoint x="880" y="370" as="targetPoint" />
          </mxGeometry>
        </mxCell>
        <mxCell id="CEqzT_O1zlGT0uFjJXag-70" value="" style="endArrow=none;html=1;rounded=0;exitX=1;exitY=0.5;exitDx=0;exitDy=0;entryX=0;entryY=0.5;entryDx=0;entryDy=0;" edge="1" parent="1" source="CEqzT_O1zlGT0uFjJXag-34" target="CEqzT_O1zlGT0uFjJXag-5">
          <mxGeometry width="50" height="50" relative="1" as="geometry">
            <mxPoint x="830" y="420" as="sourcePoint" />
            <mxPoint x="880" y="370" as="targetPoint" />
          </mxGeometry>
        </mxCell>
        <mxCell id="CEqzT_O1zlGT0uFjJXag-71" value="" style="endArrow=none;html=1;rounded=0;exitX=1;exitY=0.5;exitDx=0;exitDy=0;entryX=0;entryY=1;entryDx=0;entryDy=0;" edge="1" parent="1" source="CEqzT_O1zlGT0uFjJXag-5" target="CEqzT_O1zlGT0uFjJXag-32">
          <mxGeometry width="50" height="50" relative="1" as="geometry">
            <mxPoint x="930" y="420" as="sourcePoint" />
            <mxPoint x="980" y="370" as="targetPoint" />
          </mxGeometry>
        </mxCell>
        <mxCell id="CEqzT_O1zlGT0uFjJXag-72" value="" style="endArrow=none;html=1;rounded=0;entryX=0.014;entryY=0.376;entryDx=0;entryDy=0;entryPerimeter=0;exitX=1;exitY=0.667;exitDx=0;exitDy=0;exitPerimeter=0;" edge="1" parent="1" source="CEqzT_O1zlGT0uFjJXag-5" target="CEqzT_O1zlGT0uFjJXag-33">
          <mxGeometry width="50" height="50" relative="1" as="geometry">
            <mxPoint x="898" y="420" as="sourcePoint" />
            <mxPoint x="980" y="370" as="targetPoint" />
          </mxGeometry>
        </mxCell>
        <mxCell id="CEqzT_O1zlGT0uFjJXag-73" value="Has" style="rhombus;whiteSpace=wrap;html=1;fillColor=#dae8fc;strokeColor=#6c8ebf;" vertex="1" parent="1">
          <mxGeometry x="-330" y="320" width="80" height="80" as="geometry" />
        </mxCell>
        <mxCell id="CEqzT_O1zlGT0uFjJXag-74" value="" style="endArrow=none;html=1;rounded=0;exitX=1;exitY=1;exitDx=0;exitDy=0;entryX=0;entryY=0.5;entryDx=0;entryDy=0;" edge="1" parent="1" source="CEqzT_O1zlGT0uFjJXag-1" target="CEqzT_O1zlGT0uFjJXag-73">
          <mxGeometry width="50" height="50" relative="1" as="geometry">
            <mxPoint x="-290" y="390" as="sourcePoint" />
            <mxPoint x="-240" y="340" as="targetPoint" />
          </mxGeometry>
        </mxCell>
        <mxCell id="CEqzT_O1zlGT0uFjJXag-76" value="" style="endArrow=classic;html=1;rounded=0;exitX=1;exitY=0.5;exitDx=0;exitDy=0;entryX=0.01;entryY=0.392;entryDx=0;entryDy=0;entryPerimeter=0;" edge="1" parent="1" source="CEqzT_O1zlGT0uFjJXag-73" target="CEqzT_O1zlGT0uFjJXag-2">
          <mxGeometry width="50" height="50" relative="1" as="geometry">
            <mxPoint x="-290" y="390" as="sourcePoint" />
            <mxPoint x="-240" y="340" as="targetPoint" />
          </mxGeometry>
        </mxCell>
        <mxCell id="CEqzT_O1zlGT0uFjJXag-77" value="Has" style="rhombus;whiteSpace=wrap;html=1;fillColor=#dae8fc;strokeColor=#6c8ebf;" vertex="1" parent="1">
          <mxGeometry x="-52.5" y="545" width="80" height="80" as="geometry" />
        </mxCell>
        <mxCell id="CEqzT_O1zlGT0uFjJXag-78" value="" style="endArrow=none;html=1;rounded=0;exitX=0.5;exitY=1;exitDx=0;exitDy=0;endFill=0;" edge="1" parent="1" source="CEqzT_O1zlGT0uFjJXag-2" target="CEqzT_O1zlGT0uFjJXag-77">
          <mxGeometry width="50" height="50" relative="1" as="geometry">
            <mxPoint x="-50" y="600" as="sourcePoint" />
            <mxPoint y="550" as="targetPoint" />
          </mxGeometry>
        </mxCell>
        <mxCell id="CEqzT_O1zlGT0uFjJXag-79" value="" style="endArrow=classic;html=1;rounded=0;entryX=0.5;entryY=0;entryDx=0;entryDy=0;exitX=0.5;exitY=1;exitDx=0;exitDy=0;" edge="1" parent="1" source="CEqzT_O1zlGT0uFjJXag-77" target="CEqzT_O1zlGT0uFjJXag-3">
          <mxGeometry width="50" height="50" relative="1" as="geometry">
            <mxPoint x="-13" y="620" as="sourcePoint" />
            <mxPoint x="-3" y="556" as="targetPoint" />
          </mxGeometry>
        </mxCell>
        <mxCell id="CEqzT_O1zlGT0uFjJXag-80" value="Has" style="rhombus;whiteSpace=wrap;html=1;fillColor=#dae8fc;strokeColor=#6c8ebf;" vertex="1" parent="1">
          <mxGeometry x="130" y="460" width="80" height="80" as="geometry" />
        </mxCell>
        <mxCell id="CEqzT_O1zlGT0uFjJXag-81" value="" style="endArrow=classic;html=1;rounded=0;entryX=1;entryY=0.5;entryDx=0;entryDy=0;exitX=0;exitY=0.5;exitDx=0;exitDy=0;" edge="1" parent="1" source="CEqzT_O1zlGT0uFjJXag-80" target="CEqzT_O1zlGT0uFjJXag-2">
          <mxGeometry width="50" height="50" relative="1" as="geometry">
            <mxPoint x="120" y="600" as="sourcePoint" />
            <mxPoint x="170" y="550" as="targetPoint" />
          </mxGeometry>
        </mxCell>
        <mxCell id="CEqzT_O1zlGT0uFjJXag-82" value="" style="endArrow=none;html=1;rounded=0;entryX=0;entryY=0.5;entryDx=0;entryDy=0;exitX=0.948;exitY=0.504;exitDx=0;exitDy=0;exitPerimeter=0;" edge="1" parent="1" source="CEqzT_O1zlGT0uFjJXag-80" target="CEqzT_O1zlGT0uFjJXag-6">
          <mxGeometry width="50" height="50" relative="1" as="geometry">
            <mxPoint x="120" y="600" as="sourcePoint" />
            <mxPoint x="170" y="550" as="targetPoint" />
          </mxGeometry>
        </mxCell>
        <mxCell id="CEqzT_O1zlGT0uFjJXag-83" value="Has" style="rhombus;whiteSpace=wrap;html=1;fillColor=#dae8fc;strokeColor=#6c8ebf;" vertex="1" parent="1">
          <mxGeometry x="400" y="595" width="80" height="80" as="geometry" />
        </mxCell>
        <mxCell id="CEqzT_O1zlGT0uFjJXag-84" value="" style="endArrow=classic;html=1;rounded=0;exitX=0.5;exitY=1;exitDx=0;exitDy=0;entryX=0.386;entryY=0.057;entryDx=0;entryDy=0;entryPerimeter=0;" edge="1" parent="1" source="CEqzT_O1zlGT0uFjJXag-83" target="CEqzT_O1zlGT0uFjJXag-4">
          <mxGeometry width="50" height="50" relative="1" as="geometry">
            <mxPoint x="460" y="610" as="sourcePoint" />
            <mxPoint x="510" y="560" as="targetPoint" />
          </mxGeometry>
        </mxCell>
        <mxCell id="CEqzT_O1zlGT0uFjJXag-85" value="" style="endArrow=none;html=1;rounded=0;exitX=0.875;exitY=1;exitDx=0;exitDy=0;exitPerimeter=0;entryX=0.5;entryY=0;entryDx=0;entryDy=0;" edge="1" parent="1" source="CEqzT_O1zlGT0uFjJXag-6" target="CEqzT_O1zlGT0uFjJXag-83">
          <mxGeometry width="50" height="50" relative="1" as="geometry">
            <mxPoint x="530" y="610" as="sourcePoint" />
            <mxPoint x="580" y="560" as="targetPoint" />
          </mxGeometry>
        </mxCell>
        <mxCell id="CEqzT_O1zlGT0uFjJXag-86" value="" style="endArrow=classic;html=1;rounded=0;entryX=0.5;entryY=1;entryDx=0;entryDy=0;exitX=0.5;exitY=0;exitDx=0;exitDy=0;" edge="1" parent="1" source="CEqzT_O1zlGT0uFjJXag-10" target="CEqzT_O1zlGT0uFjJXag-5">
          <mxGeometry width="50" height="50" relative="1" as="geometry">
            <mxPoint x="730" y="610" as="sourcePoint" />
            <mxPoint x="780" y="560" as="targetPoint" />
          </mxGeometry>
        </mxCell>
        <mxCell id="CEqzT_O1zlGT0uFjJXag-87" value="" style="endArrow=classic;html=1;rounded=0;exitX=0.5;exitY=1;exitDx=0;exitDy=0;entryX=1;entryY=0.5;entryDx=0;entryDy=0;" edge="1" parent="1" source="CEqzT_O1zlGT0uFjJXag-10" target="CEqzT_O1zlGT0uFjJXag-4">
          <mxGeometry width="50" height="50" relative="1" as="geometry">
            <mxPoint x="730" y="610" as="sourcePoint" />
            <mxPoint x="780" y="560" as="targetPoint" />
          </mxGeometry>
        </mxCell>
      </root>
    </mxGraphModel>
  </diagram>
</mxfile>
